<svg xmlns="http://www.w3.org/2000/svg" viewBox="0 0 138.934 101.168"><title>6710 [Converted]3</title><rect x="90.126" y="38.721" width="4.349" height="25.001" style="fill:#f9b233"/><rect x="90.126" y="38.721" width="4.349" height="0.455" style="fill:#d99b2c"/><rect x="90.126" y="60.705" width="4.349" height="2.948" style="fill:#d99b2c"/><rect x="90.126" y="42.754" width="4.349" height="0.455" style="fill:#d99b2c"/><rect x="93.086" y="44.072" width="0.546" height="9.496" style="fill:#d99b2c"/><rect x="92.027" y="44.072" width="0.547" height="5.76" style="fill:#d99b2c"/><rect x="90.969" y="44.072" width="0.546" height="6.809" style="fill:#d99b2c"/><rect x="110.187" y="47.215" width="28.748" height="7.61" style="fill:#396c85"/><rect x="112.21" y="47.215" width="1.662" height="7.61" style="fill:#36a9e1"/><rect x="114.867" y="47.215" width="1.662" height="7.61" style="fill:#36a9e1"/><rect x="135.434" y="47.215" width="1.668" height="7.61" style="fill:#36a9e1"/><rect x="117.995" y="49.277" width="15.419" height="1.625" style="fill:#36a9e1"/><rect x="119.184" y="51.695" width="13.041" height="1.07" style="fill:#36a9e1"/><rect x="106.698" y="54.825" width="32.236" height="4.481" style="fill:#e6332a"/><rect x="106.698" y="54.825" width="0.687" height="4.481" style="fill:#be1622"/><rect x="138.247" y="54.825" width="0.687" height="4.481" style="fill:#be1622"/><rect x="108.495" y="56.193" width="19.924" height="1.744" style="fill:#be1622"/><rect x="130.164" y="56.629" width="6.104" height="0.872" style="fill:#be1622"/><rect x="110.661" y="59.305" width="23.817" height="4.509" style="fill:#936037"/><rect x="114.828" y="59.305" width="19.65" height="4.509" style="fill:#00a19a"/><rect x="111.685" y="59.784" width="0.82" height="3.245" style="fill:#f9b233"/><rect x="113.086" y="60.33" width="0.41" height="2.152" style="fill:#f9b233"/><circle cx="132.111" cy="61.492" r="1.161" style="fill:#f9b233"/><rect x="94.667" y="38.454" width="4.536" height="25.264" style="fill:#396c85"/><rect x="95.562" y="40.579" width="2.389" height="2.062" style="fill:#36a9e1"/><rect x="95.562" y="43.27" width="2.389" height="2.062" style="fill:#36a9e1"/><rect x="99.255" y="35.46" width="5.709" height="28.258" style="fill:#be1622"/><rect x="100.34" y="37.937" width="1.039" height="22.655" style="fill:#f9b233"/><rect x="102.628" y="37.937" width="1.039" height="14.602" style="fill:#f9b233"/><rect x="62.887" y="38.754" width="6.558" height="24.773" style="fill:#00a19a"/><rect x="62.887" y="40.497" width="6.558" height="1.432" style="fill:#f9b233"/><rect x="62.887" y="42.787" width="6.558" height="1.432" style="fill:#f9b233"/><rect x="62.887" y="60.51" width="6.558" height="1.437" style="fill:#f9b233"/><rect x="64.664" y="45.483" width="1.4" height="13.287" style="fill:#00807a"/><rect x="66.748" y="46.507" width="0.922" height="11.237" style="fill:#00807a"/><rect x="69.445" y="35.748" width="3.861" height="27.779" style="fill:#e6332a"/><rect x="69.445" y="35.748" width="3.861" height="0.592" style="fill:#be1622"/><rect x="69.445" y="62.935" width="3.861" height="0.592" style="fill:#be1622"/><rect x="70.624" y="37.296" width="1.503" height="17.169" style="fill:#be1622"/><rect x="71" y="55.968" width="0.751" height="5.26" style="fill:#be1622"/><rect x="82.164" y="37.296" width="3.861" height="26.23" style="fill:#396c85"/><rect x="82.164" y="37.296" width="3.861" height="0.559" style="fill:#36a9e1"/><rect x="82.164" y="62.968" width="3.861" height="0.559" style="fill:#36a9e1"/><rect x="73.306" y="39.71" width="4.509" height="23.817" style="fill:#936037"/><rect x="73.306" y="43.877" width="4.509" height="19.649" style="fill:#7d4e24"/><rect x="73.784" y="40.735" width="3.245" height="0.82" style="fill:#f9b233"/><rect x="74.331" y="42.135" width="2.152" height="0.41" style="fill:#f9b233"/><circle cx="75.492" cy="61.16" r="1.161" style="fill:#f9b233"/><rect x="77.815" y="38.526" width="4.349" height="25.001" style="fill:#f9b233"/><rect x="77.815" y="38.526" width="4.349" height="0.455" style="fill:#d99b2c"/><rect x="77.815" y="60.51" width="4.349" height="2.948" style="fill:#d99b2c"/><rect x="77.815" y="42.559" width="4.349" height="0.455" style="fill:#d99b2c"/><rect x="78.657" y="43.877" width="0.547" height="9.495" style="fill:#d99b2c"/><rect x="79.716" y="43.877" width="0.546" height="5.76" style="fill:#d99b2c"/><rect x="80.775" y="43.877" width="0.547" height="6.808" style="fill:#d99b2c"/><rect x="46.537" y="49.491" width="23.309" height="4.372" transform="translate(-5.016 97.081) rotate(-77.297)" style="fill:#e6332a"/><rect x="60.451" y="38.364" width="0.497" height="4.372" transform="translate(7.795 90.847) rotate(-77.297)" style="fill:#575756"/><rect x="55.435" y="60.618" width="0.497" height="4.372" transform="translate(-17.827 103.315) rotate(-77.298)" style="fill:#575756"/><rect x="49.853" y="52.051" width="15.027" height="1.184" transform="translate(-6.603 97.028) rotate(-77.296)" style="fill:#ff4940"/><rect x="52.556" y="54.19" width="11.885" height="0.638" transform="translate(-7.539 99.59) rotate(-77.298)" style="fill:#ff4940"/><rect x="96.463" y="74.537" width="3.861" height="22.593" style="fill:#396c85"/><rect x="96.463" y="74.537" width="3.861" height="0.481" style="fill:#36a9e1"/><rect x="96.463" y="96.648" width="3.861" height="0.482" style="fill:#36a9e1"/><rect x="109.877" y="72.357" width="6.558" height="24.773" style="fill:#396c85"/><rect x="109.877" y="74.1" width="6.558" height="1.432" style="fill:#36a9e1"/><rect x="109.877" y="76.39" width="6.558" height="1.432" style="fill:#36a9e1"/><rect x="109.877" y="94.113" width="6.558" height="1.437" style="fill:#36a9e1"/><rect x="113.257" y="79.086" width="1.4" height="13.287" style="fill:#36a9e1"/><rect x="111.651" y="80.11" width="0.922" height="11.237" style="fill:#36a9e1"/><rect x="126.652" y="73.313" width="4.509" height="23.817" style="fill:#936037"/><rect x="126.652" y="77.48" width="4.509" height="19.65" style="fill:#008680"/><rect x="127.437" y="74.338" width="3.245" height="0.82" style="fill:#f9b233"/><rect x="127.984" y="75.738" width="2.152" height="0.41" style="fill:#f9b233"/><path d="M127.813,94.763a1.162,1.162,0,1,0,1.161-1.161A1.161,1.161,0,0,0,127.813,94.763Z" style="fill:#f9b233"/><rect x="122.143" y="73.313" width="4.509" height="23.817" style="fill:#936037"/><rect x="122.143" y="77.48" width="4.509" height="19.65" style="fill:#00a19a"/><rect x="122.929" y="74.338" width="3.245" height="0.82" style="fill:#f9b233"/><rect x="123.475" y="75.738" width="2.152" height="0.41" style="fill:#f9b233"/><circle cx="124.466" cy="94.763" r="1.161" style="fill:#f9b233"/><rect x="92.114" y="72.129" width="4.349" height="25.001" style="fill:#7d4e24"/><rect x="92.114" y="72.129" width="4.349" height="0.455" style="fill:#d99b2c"/><rect x="92.114" y="94.113" width="4.349" height="2.948" style="fill:#d99b2c"/><rect x="92.114" y="76.162" width="4.349" height="0.455" style="fill:#d99b2c"/><rect x="95.074" y="77.48" width="0.546" height="9.496" style="fill:#d99b2c"/><rect x="94.015" y="77.48" width="0.546" height="5.76" style="fill:#d99b2c"/><rect x="92.956" y="77.48" width="0.546" height="6.809" style="fill:#d99b2c"/><rect x="93.527" y="83.094" width="23.309" height="4.372" transform="translate(-1.14 169.134) rotate(-77.297)" style="fill:#e6332a"/><rect x="102.425" y="94.221" width="0.497" height="4.372" transform="translate(-13.95 175.37) rotate(-77.298)" style="fill:#575756"/><rect x="107.441" y="71.967" width="0.497" height="4.372" transform="translate(11.671 162.9) rotate(-77.297)" style="fill:#575756"/><rect x="98.492" y="83.721" width="15.028" height="1.184" transform="translate(0.445 169.183) rotate(-77.296)" style="fill:#ff4940"/><rect x="98.932" y="82.129" width="11.885" height="0.638" transform="translate(1.384 166.626) rotate(-77.298)" style="fill:#ff4940"/><rect x="70.962" y="72.357" width="6.558" height="24.773" style="fill:#00a19a"/><rect x="70.962" y="74.1" width="6.558" height="1.432" style="fill:#f9b233"/><rect x="70.962" y="76.39" width="6.558" height="1.432" style="fill:#f9b233"/><rect x="70.962" y="94.113" width="6.558" height="1.437" style="fill:#f9b233"/><rect x="74.342" y="79.086" width="1.4" height="13.287" style="fill:#00807a"/><rect x="72.736" y="80.11" width="0.922" height="11.237" style="fill:#00807a"/><rect x="87.764" y="77.253" width="4.349" height="19.877" style="fill:#f9b233"/><rect x="87.764" y="77.253" width="4.349" height="0.362" style="fill:#d99b2c"/><rect x="87.764" y="94.731" width="4.349" height="2.344" style="fill:#d99b2c"/><rect x="87.764" y="80.459" width="4.349" height="0.362" style="fill:#d99b2c"/><rect x="90.725" y="81.507" width="0.546" height="7.549" style="fill:#d99b2c"/><rect x="89.666" y="81.507" width="0.546" height="4.58" style="fill:#d99b2c"/><rect x="88.607" y="81.507" width="0.546" height="5.413" style="fill:#d99b2c"/><rect x="77.52" y="74.771" width="5.709" height="22.359" style="fill:#396c85"/><rect x="116.435" y="74.771" width="5.708" height="22.359" style="fill:#7d4e24"/><rect x="117.534" y="76.508" width="3.323" height="18.933" style="fill:#d99b2c"/><rect x="83.228" y="71.866" width="4.536" height="25.264" style="fill:#2f596e"/><rect x="84.123" y="73.99" width="2.389" height="2.062" style="fill:#36a9e1"/><rect x="84.123" y="76.681" width="2.389" height="2.062" style="fill:#36a9e1"/><rect y="29.712" width="137.431" height="4.038" style="fill:#59463c"/><rect x="66.924" width="4.038" height="29.712" style="fill:#59463c"/><rect x="85.953" y="33.769" width="4.038" height="29.712" style="fill:#59463c"/><rect x="66.924" y="67.418" width="4.038" height="29.712" style="fill:#59463c"/><rect y="63.413" width="137.431" height="4.055" style="fill:#59463c"/><rect y="97.13" width="137.431" height="4.038" style="fill:#59463c"/><rect x="4.105" y="38.754" width="6.558" height="24.773" style="fill:#00a19a"/><rect x="4.105" y="40.497" width="6.558" height="1.432" style="fill:#f9b233"/><rect x="4.105" y="42.787" width="6.558" height="1.432" style="fill:#f9b233"/><rect x="4.105" y="60.51" width="6.558" height="1.437" style="fill:#f9b233"/><rect x="7.485" y="45.483" width="1.4" height="13.287" style="fill:#00807a"/><rect x="5.88" y="46.507" width="0.922" height="11.237" style="fill:#00807a"/><rect x="10.663" y="38.754" width="6.558" height="24.773" style="fill:#008680"/><rect x="10.663" y="40.497" width="6.558" height="1.432" style="fill:#de9f2d"/><rect x="10.663" y="42.787" width="6.558" height="1.432" style="fill:#de9f2d"/><rect x="10.663" y="60.51" width="6.558" height="1.437" style="fill:#de9f2d"/><rect x="14.043" y="45.483" width="1.4" height="13.287" style="fill:#006560"/><rect x="12.438" y="46.507" width="0.922" height="11.237" style="fill:#006560"/><rect x="17.221" y="38.754" width="6.558" height="24.773" style="fill:#00a19a"/><rect x="17.221" y="40.497" width="6.558" height="1.432" style="fill:#f9b233"/><rect x="17.221" y="42.787" width="6.558" height="1.432" style="fill:#f9b233"/><rect x="17.221" y="60.51" width="6.558" height="1.437" style="fill:#f9b233"/><rect x="20.601" y="45.483" width="1.4" height="13.287" style="fill:#00807a"/><rect x="18.996" y="46.507" width="0.922" height="11.237" style="fill:#00807a"/><rect x="23.779" y="38.754" width="6.558" height="24.773" style="fill:#008680"/><rect x="23.779" y="40.497" width="6.558" height="1.432" style="fill:#de9f2d"/><rect x="23.779" y="42.787" width="6.558" height="1.432" style="fill:#de9f2d"/><rect x="23.779" y="60.51" width="6.558" height="1.437" style="fill:#de9f2d"/><rect x="27.159" y="45.483" width="1.4" height="13.287" style="fill:#006560"/><rect x="25.554" y="46.507" width="0.922" height="11.237" style="fill:#006560"/><rect x="30.337" y="38.754" width="6.558" height="24.773" style="fill:#00a19a"/><rect x="30.337" y="40.497" width="6.558" height="1.432" style="fill:#f9b233"/><rect x="30.337" y="42.787" width="6.558" height="1.432" style="fill:#f9b233"/><rect x="30.337" y="60.51" width="6.558" height="1.437" style="fill:#f9b233"/><rect x="33.717" y="45.483" width="1.4" height="13.287" style="fill:#00807a"/><rect x="32.112" y="46.507" width="0.922" height="11.237" style="fill:#00807a"/><rect x="36.895" y="38.754" width="6.558" height="24.773" style="fill:#008680"/><rect x="36.895" y="40.497" width="6.558" height="1.432" style="fill:#de9f2d"/><rect x="36.895" y="42.787" width="6.558" height="1.432" style="fill:#de9f2d"/><rect x="36.895" y="60.51" width="6.558" height="1.437" style="fill:#de9f2d"/><rect x="40.275" y="45.483" width="1.4" height="13.287" style="fill:#006560"/><rect x="38.67" y="46.507" width="0.922" height="11.237" style="fill:#006560"/><rect x="103.007" y="1.934" width="3.861" height="27.779" style="fill:#e6332a"/><rect x="103.007" y="1.934" width="3.861" height="0.592" style="fill:#be1622"/><rect x="103.007" y="29.12" width="3.861" height="0.592" style="fill:#be1622"/><rect x="104.186" y="3.482" width="1.503" height="17.169" style="fill:#be1622"/><rect x="104.561" y="22.154" width="0.751" height="5.26" style="fill:#be1622"/><rect x="43.339" y="40.933" width="3.861" height="22.593" style="fill:#396c85"/><rect x="43.339" y="40.933" width="3.861" height="0.481" style="fill:#36a9e1"/><rect x="43.339" y="63.045" width="3.861" height="0.481" style="fill:#36a9e1"/><rect x="70.962" y="5.896" width="4.509" height="23.817" style="fill:#936037"/><rect x="70.962" y="10.063" width="4.509" height="19.649" style="fill:#7d4e24"/><rect x="71.747" y="6.92" width="3.245" height="0.82" style="fill:#f9b233"/><rect x="72.294" y="8.321" width="2.152" height="0.41" style="fill:#f9b233"/><path d="M72.123,27.346a1.162,1.162,0,1,0,1.161-1.161A1.161,1.161,0,0,0,72.123,27.346Z" style="fill:#f9b233"/><rect x="79.979" y="5.896" width="4.509" height="23.817" style="fill:#936037"/><rect x="79.979" y="10.063" width="4.509" height="19.649" style="fill:#7d4e24"/><rect x="80.765" y="6.92" width="3.245" height="0.82" style="fill:#f9b233"/><rect x="81.311" y="8.321" width="2.152" height="0.41" style="fill:#f9b233"/><path d="M81.14,27.346A1.162,1.162,0,1,0,82.3,26.185,1.161,1.161,0,0,0,81.14,27.346Z" style="fill:#f9b233"/><rect x="84.488" y="5.896" width="4.509" height="23.817" style="fill:#734b2b"/><rect x="84.488" y="10.063" width="4.509" height="19.649" style="fill:#5d3a1b"/><rect x="85.273" y="6.92" width="3.245" height="0.82" style="fill:#d99b2c"/><rect x="85.82" y="8.321" width="2.152" height="0.41" style="fill:#d99b2c"/><circle cx="86.81" cy="27.346" r="1.161" style="fill:#d99b2c"/><rect x="98.657" y="4.712" width="4.349" height="25.001" style="fill:#f9b233"/><rect x="98.657" y="4.712" width="4.349" height="0.455" style="fill:#d99b2c"/><rect x="98.657" y="26.696" width="4.349" height="2.948" style="fill:#d99b2c"/><rect x="98.657" y="8.745" width="4.349" height="0.455" style="fill:#d99b2c"/><rect x="101.618" y="10.063" width="0.546" height="9.495" style="fill:#d99b2c"/><rect x="100.559" y="10.063" width="0.546" height="5.76" style="fill:#d99b2c"/><rect x="99.5" y="10.063" width="0.546" height="6.808" style="fill:#d99b2c"/><rect x="91.495" y="6.208" width="4.372" height="23.309" transform="translate(-1.635 21.035) rotate(-12.702)" style="fill:#e6332a"/><rect x="88.987" y="6.487" width="4.372" height="0.497" transform="translate(0.751 20.214) rotate(-12.703)" style="fill:#575756"/><rect x="94.003" y="28.741" width="4.372" height="0.497" transform="translate(-4.02 21.859) rotate(-12.702)" style="fill:#575756"/><rect x="93.913" y="11.315" width="1.184" height="15.028" transform="translate(-1.827 21.244) rotate(-12.704)" style="fill:#ff4940"/><rect x="93.055" y="14.752" width="0.638" height="11.885" transform="translate(-2.265 21.038) rotate(-12.702)" style="fill:#ff4940"/><rect x="20.685" y="4.939" width="6.558" height="24.773" style="fill:#396c85"/><rect x="20.685" y="6.683" width="6.558" height="1.432" style="fill:#36a9e1"/><rect x="20.685" y="8.972" width="6.558" height="1.432" style="fill:#36a9e1"/><rect x="20.685" y="26.696" width="6.558" height="1.437" style="fill:#36a9e1"/><rect x="24.065" y="11.668" width="1.4" height="13.287" style="fill:#36a9e1"/><rect x="22.46" y="12.693" width="0.922" height="11.238" style="fill:#36a9e1"/><rect x="16.824" y="1.934" width="3.861" height="27.779" style="fill:#e6332a"/><rect x="16.824" y="1.934" width="3.861" height="0.592" style="fill:#be1622"/><rect x="16.824" y="29.12" width="3.861" height="0.592" style="fill:#be1622"/><rect x="18.003" y="3.482" width="1.503" height="17.169" style="fill:#be1622"/><rect x="18.379" y="22.154" width="0.751" height="5.26" style="fill:#be1622"/><rect x="4.105" y="3.482" width="3.861" height="26.23" style="fill:#be1622"/><rect x="4.105" y="3.482" width="3.861" height="0.559" style="fill:#36a9e1"/><rect x="4.105" y="29.153" width="3.861" height="0.559" style="fill:#36a9e1"/><rect x="12.315" y="5.896" width="4.509" height="23.817" style="fill:#936037"/><rect x="12.315" y="10.063" width="4.509" height="19.649" style="fill:#00a19a"/><rect x="13.101" y="6.92" width="3.245" height="0.82" style="fill:#f9b233"/><rect x="13.648" y="8.321" width="2.152" height="0.41" style="fill:#f9b233"/><path d="M13.477,27.346a1.161,1.161,0,1,0,1.161-1.161A1.161,1.161,0,0,0,13.477,27.346Z" style="fill:#f9b233"/><rect x="7.966" y="4.712" width="4.349" height="25.001" style="fill:#7d4e24"/><rect x="7.966" y="4.712" width="4.349" height="0.455" style="fill:#d99b2c"/><rect x="7.966" y="26.696" width="4.349" height="2.948" style="fill:#d99b2c"/><rect x="7.966" y="8.745" width="4.349" height="0.455" style="fill:#d99b2c"/><rect x="10.926" y="10.063" width="0.547" height="9.495" style="fill:#d99b2c"/><rect x="9.868" y="10.063" width="0.546" height="5.76" style="fill:#d99b2c"/><rect x="8.809" y="10.063" width="0.546" height="6.808" style="fill:#d99b2c"/><rect x="29.752" y="6.208" width="4.372" height="23.309" transform="translate(-3.146 7.459) rotate(-12.702)" style="fill:#e6332a"/><rect x="27.244" y="6.487" width="4.372" height="0.497" transform="translate(-0.761 6.637) rotate(-12.703)" style="fill:#575756"/><rect x="32.261" y="28.741" width="4.372" height="0.497" transform="translate(-5.531 8.283) rotate(-12.702)" style="fill:#575756"/><rect x="32.171" y="11.315" width="1.184" height="15.028" transform="translate(-3.339 7.666) rotate(-12.704)" style="fill:#ff4940"/><rect x="31.313" y="14.752" width="0.638" height="11.885" transform="translate(-3.776 7.462) rotate(-12.702)" style="fill:#ff4940"/><rect x="47.203" y="38.526" width="4.349" height="25.001" style="fill:#7d4e24"/><rect x="47.203" y="38.526" width="4.349" height="0.455" style="fill:#d99b2c"/><rect x="47.203" y="60.51" width="4.349" height="2.948" style="fill:#d99b2c"/><rect x="47.203" y="42.559" width="4.349" height="0.455" style="fill:#d99b2c"/><rect x="50.163" y="43.877" width="0.546" height="9.495" style="fill:#d99b2c"/><rect x="49.104" y="43.877" width="0.546" height="5.76" style="fill:#d99b2c"/><rect x="48.045" y="43.877" width="0.546" height="6.808" style="fill:#d99b2c"/><rect x="106.868" y="4.712" width="4.349" height="25.001" style="fill:#396c85"/><rect x="106.868" y="4.712" width="4.349" height="0.455" style="fill:#d99b2c"/><rect x="106.868" y="26.696" width="4.349" height="2.948" style="fill:#d99b2c"/><rect x="106.868" y="8.745" width="4.349" height="0.455" style="fill:#d99b2c"/><rect x="109.828" y="10.063" width="0.546" height="9.495" style="fill:#d99b2c"/><rect x="108.769" y="10.063" width="0.546" height="5.76" style="fill:#d99b2c"/><rect x="107.71" y="10.063" width="0.546" height="6.808" style="fill:#d99b2c"/><rect x="111.217" y="4.712" width="4.349" height="25.001" style="fill:#2f596e"/><rect x="111.217" y="4.712" width="4.349" height="0.455" style="fill:#c28a27"/><rect x="111.217" y="26.696" width="4.349" height="2.948" style="fill:#c28a27"/><rect x="111.217" y="8.745" width="4.349" height="0.455" style="fill:#c28a27"/><rect x="114.177" y="10.063" width="0.547" height="9.495" style="fill:#c28a27"/><rect x="113.118" y="10.063" width="0.546" height="5.76" style="fill:#c28a27"/><rect x="112.059" y="10.063" width="0.547" height="6.808" style="fill:#c28a27"/><rect x="115.566" y="4.712" width="4.349" height="25.001" style="fill:#396c85"/><rect x="115.566" y="4.712" width="4.349" height="0.455" style="fill:#d99b2c"/><rect x="115.566" y="26.696" width="4.349" height="2.948" style="fill:#d99b2c"/><rect x="115.566" y="8.745" width="4.349" height="0.455" style="fill:#d99b2c"/><rect x="118.526" y="10.063" width="0.546" height="9.495" style="fill:#d99b2c"/><rect x="117.468" y="10.063" width="0.546" height="5.76" style="fill:#d99b2c"/><rect x="116.409" y="10.063" width="0.546" height="6.808" style="fill:#d99b2c"/><rect x="119.915" y="4.712" width="4.349" height="25.001" style="fill:#2f596e"/><rect x="119.915" y="4.712" width="4.349" height="0.455" style="fill:#c28a27"/><rect x="119.915" y="26.696" width="4.349" height="2.948" style="fill:#c28a27"/><rect x="119.915" y="8.745" width="4.349" height="0.455" style="fill:#c28a27"/><rect x="122.876" y="10.063" width="0.546" height="9.495" style="fill:#c28a27"/><rect x="121.817" y="10.063" width="0.546" height="5.76" style="fill:#c28a27"/><rect x="120.758" y="10.063" width="0.546" height="6.808" style="fill:#c28a27"/><rect x="124.265" y="4.712" width="4.349" height="25.001" style="fill:#396c85"/><rect x="124.265" y="4.712" width="4.349" height="0.455" style="fill:#d99b2c"/><rect x="124.265" y="26.696" width="4.349" height="2.948" style="fill:#d99b2c"/><rect x="124.265" y="8.745" width="4.349" height="0.455" style="fill:#d99b2c"/><rect x="127.225" y="10.063" width="0.546" height="9.495" style="fill:#d99b2c"/><rect x="126.166" y="10.063" width="0.546" height="5.76" style="fill:#d99b2c"/><rect x="125.107" y="10.063" width="0.546" height="6.808" style="fill:#d99b2c"/><rect x="56.599" y="4.939" width="6.558" height="24.773" style="fill:#00a19a"/><rect x="56.599" y="6.683" width="6.558" height="1.432" style="fill:#f9b233"/><rect x="56.599" y="8.972" width="6.558" height="1.432" style="fill:#f9b233"/><rect x="56.599" y="26.696" width="6.558" height="1.437" style="fill:#f9b233"/><rect x="59.98" y="11.668" width="1.4" height="13.287" style="fill:#00807a"/><rect x="58.374" y="12.693" width="0.922" height="11.238" style="fill:#00807a"/><rect x="52.738" y="8.025" width="3.861" height="21.688" style="fill:#e6332a"/><rect x="52.738" y="8.025" width="3.861" height="0.462" style="fill:#be1622"/><rect x="52.738" y="29.25" width="3.861" height="0.462" style="fill:#be1622"/><rect x="53.918" y="9.234" width="1.503" height="13.405" style="fill:#be1622"/><rect x="54.293" y="23.811" width="0.751" height="4.107" style="fill:#be1622"/><rect x="4.105" y="70.617" width="4.832" height="26.513" style="fill:#e6332a"/><rect x="4.105" y="70.617" width="4.832" height="0.565" style="fill:#be1622"/><rect x="4.105" y="96.565" width="4.832" height="0.565" style="fill:#be1622"/><rect x="5.581" y="72.094" width="1.881" height="16.387" style="fill:#be1622"/><rect x="6.051" y="89.916" width="0.94" height="5.021" style="fill:#be1622"/><rect x="8.937" y="70.617" width="4.832" height="26.513" style="fill:#ba2922"/><rect x="8.937" y="70.617" width="4.832" height="0.565" style="fill:#92111a"/><rect x="8.937" y="96.565" width="4.832" height="0.565" style="fill:#92111a"/><rect x="10.413" y="72.094" width="1.881" height="16.387" style="fill:#92111a"/><rect x="10.883" y="89.916" width="0.94" height="5.021" style="fill:#92111a"/><rect x="13.77" y="70.617" width="4.832" height="26.513" style="fill:#e6332a"/><rect x="13.77" y="70.617" width="4.832" height="0.565" style="fill:#be1622"/><rect x="13.77" y="96.565" width="4.832" height="0.565" style="fill:#be1622"/><rect x="15.245" y="72.094" width="1.881" height="16.387" style="fill:#be1622"/><rect x="15.715" y="89.916" width="0.94" height="5.021" style="fill:#be1622"/><rect x="18.602" y="70.617" width="4.832" height="26.513" style="fill:#ba2922"/><rect x="18.602" y="70.617" width="4.832" height="0.565" style="fill:#92111a"/><rect x="18.602" y="96.565" width="4.832" height="0.565" style="fill:#92111a"/><rect x="20.077" y="72.094" width="1.881" height="16.387" style="fill:#92111a"/><rect x="20.548" y="89.916" width="0.94" height="5.021" style="fill:#92111a"/><rect x="23.434" y="70.617" width="4.832" height="26.513" style="fill:#e6332a"/><rect x="23.434" y="70.617" width="4.832" height="0.565" style="fill:#be1622"/><rect x="23.434" y="96.565" width="4.832" height="0.565" style="fill:#be1622"/><rect x="24.91" y="72.094" width="1.881" height="16.387" style="fill:#be1622"/><rect x="25.38" y="89.916" width="0.94" height="5.021" style="fill:#be1622"/><rect x="28.266" y="70.617" width="4.832" height="26.513" style="fill:#ba2922"/><rect x="28.266" y="70.617" width="4.832" height="0.565" style="fill:#92111a"/><rect x="28.266" y="96.565" width="4.832" height="0.565" style="fill:#92111a"/><rect x="29.742" y="72.094" width="1.881" height="16.387" style="fill:#92111a"/><rect x="30.212" y="89.916" width="0.94" height="5.021" style="fill:#92111a"/><rect x="33.098" y="70.617" width="4.832" height="26.513" style="fill:#e6332a"/><rect x="33.098" y="70.617" width="4.832" height="0.565" style="fill:#be1622"/><rect x="33.098" y="96.565" width="4.832" height="0.565" style="fill:#be1622"/><rect x="34.574" y="72.094" width="1.881" height="16.387" style="fill:#be1622"/><rect x="35.044" y="89.916" width="0.94" height="5.021" style="fill:#be1622"/><rect x="37.93" y="70.617" width="4.832" height="26.513" style="fill:#ba2922"/><rect x="37.93" y="70.617" width="4.832" height="0.565" style="fill:#92111a"/><rect x="37.93" y="96.565" width="4.832" height="0.565" style="fill:#92111a"/><rect x="39.406" y="72.094" width="1.881" height="16.387" style="fill:#92111a"/><rect x="39.876" y="89.916" width="0.94" height="5.021" style="fill:#92111a"/><rect x="42.763" y="70.617" width="4.832" height="26.513" style="fill:#e6332a"/><rect x="42.763" y="70.617" width="4.832" height="0.565" style="fill:#be1622"/><rect x="42.763" y="96.565" width="4.832" height="0.565" style="fill:#be1622"/><rect x="44.238" y="72.094" width="1.881" height="16.387" style="fill:#be1622"/><rect x="44.709" y="89.916" width="0.94" height="5.021" style="fill:#be1622"/><rect x="47.595" y="70.617" width="4.832" height="26.513" style="fill:#ba2922"/><rect x="47.595" y="70.617" width="4.832" height="0.565" style="fill:#92111a"/><rect x="47.595" y="96.565" width="4.832" height="0.565" style="fill:#92111a"/><rect x="49.07" y="72.094" width="1.881" height="16.387" style="fill:#92111a"/><rect x="49.541" y="89.916" width="0.94" height="5.021" style="fill:#92111a"/><rect x="55.996" y="70.47" width="4.832" height="26.513" transform="translate(-21.089 19.682) rotate(-16.244)" style="fill:#e6332a"/><rect x="52.367" y="70.988" width="4.832" height="0.565" transform="translate(-17.75 18.171) rotate(-16.245)" style="fill:#be1622"/><rect x="59.626" y="95.9" width="4.832" height="0.565" transform="translate(-24.43 21.196) rotate(-16.245)" style="fill:#be1622"/><rect x="56.469" y="72.091" width="1.881" height="16.387" transform="translate(-20.168 19.267) rotate(-16.246)" style="fill:#be1622"/><rect x="60.335" y="89.428" width="0.94" height="5.02" transform="translate(-23.285 20.673) rotate(-16.24)" style="fill:#be1622"/><rect x="63.158" y="3.482" width="3.861" height="26.23" style="fill:#396c85"/><rect x="63.158" y="3.482" width="3.861" height="0.559" style="fill:#36a9e1"/><rect x="63.158" y="29.153" width="3.861" height="0.559" style="fill:#36a9e1"/><rect x="48.23" y="5.896" width="4.509" height="23.817" style="fill:#936037"/><rect x="48.23" y="10.063" width="4.509" height="19.649" style="fill:#7d4e24"/><rect x="49.015" y="6.92" width="3.245" height="0.82" style="fill:#f9b233"/><rect x="49.562" y="8.321" width="2.152" height="0.41" style="fill:#f9b233"/><path d="M49.391,27.346a1.162,1.162,0,1,0,1.161-1.161A1.161,1.161,0,0,0,49.391,27.346Z" style="fill:#f9b233"/><rect x="43.881" y="9.835" width="4.349" height="19.877" style="fill:#f9b233"/><rect x="43.881" y="9.835" width="4.349" height="0.362" style="fill:#d99b2c"/><rect x="43.881" y="27.314" width="4.349" height="2.344" style="fill:#d99b2c"/><rect x="43.881" y="13.042" width="4.349" height="0.362" style="fill:#d99b2c"/><rect x="46.841" y="14.09" width="0.546" height="7.55" style="fill:#d99b2c"/><rect x="45.782" y="14.09" width="0.547" height="4.58" style="fill:#d99b2c"/><rect x="44.723" y="14.09" width="0.546" height="5.413" style="fill:#d99b2c"/></svg>